<?xml version="1.0" encoding="UTF-8" standalone="no" ?>
<!DOCTYPE svg PUBLIC "-//W3C//DTD SVG 1.1//EN" "http://www.w3.org/Graphics/SVG/1.1/DTD/svg11.dtd">
<svg xmlns="http://www.w3.org/2000/svg" xmlns:xlink="http://www.w3.org/1999/xlink" version="1.1" width="1080" height="1080" viewBox="0 0 1080 1080" xml:space="preserve">
<desc>Created with Fabric.js 5.2.4</desc>
<defs>
</defs>
<g transform="matrix(1 0 0 1 540 540)" id="95053f20-7915-429a-9b57-559cf6af1ec6"  >
</g>
<g transform="matrix(1 0 0 1 540 540)" id="f33287a4-4f60-4529-b942-cd599b1c4ab8"  >
<rect style="stroke: none; stroke-width: 1; stroke-dasharray: none; stroke-linecap: butt; stroke-dashoffset: 0; stroke-linejoin: miter; stroke-miterlimit: 4; fill: rgb(255,255,255); fill-rule: nonzero; opacity: 1; visibility: hidden;" vector-effect="non-scaling-stroke"  x="-540" y="-540" rx="0" ry="0" width="1080" height="1080" />
</g>
<g transform="matrix(0.55 0 0 0.55 540 558.94)"  >
<g style="" vector-effect="non-scaling-stroke"   >
		<g transform="matrix(1 0 0 1 16.49 3.08)"  >
<path style="stroke: none; stroke-width: 1; stroke-dasharray: none; stroke-linecap: butt; stroke-dashoffset: 0; stroke-linejoin: miter; stroke-miterlimit: 4; fill: rgb(0,0,0); fill-rule: nonzero; opacity: 1;" vector-effect="non-scaling-stroke"  transform=" translate(-76.49, -17.84)" d="M 40.7 6.98 C 40.7 6.98 40.650000000000006 6.98 40.63 6.98 C 40.61 6.98 40.580000000000005 6.98 40.56 6.98 C 35.89 6.98 32.980000000000004 9.89 32.980000000000004 14.58 L 32.980000000000004 17.11 C 32.980000000000004 21.8 35.88 24.71 40.56 24.71 C 40.580000000000005 24.71 40.61 24.71 40.63 24.71 C 40.650000000000006 24.71 40.68 24.71 40.7 24.71 C 45.370000000000005 24.71 48.28 21.8 48.28 17.11 L 48.28 14.58 C 48.28 9.89 45.370000000000005 6.98 40.7 6.98 Z M 45.010000000000005 17.29 C 45.010000000000005 20.369999999999997 43.410000000000004 22.15 40.63 22.18 C 37.85 22.15 36.25 20.37 36.25 17.29 L 36.25 14.41 C 36.25 11.33 37.85 9.55 40.63 9.52 C 43.410000000000004 9.549999999999999 45.010000000000005 11.33 45.010000000000005 14.41 L 45.010000000000005 17.29 Z M 85.58000000000001 11.5 C 85.58000000000001 11.5 85.52000000000001 11.5 85.49000000000001 11.5 C 85.47000000000001 11.5 85.46000000000001 11.5 85.44000000000001 11.5 C 83.67000000000002 11.5 82.41000000000001 12.1 81.79 13.25 L 81.60000000000001 13.6 L 81.60000000000001 11.799999999999999 L 78.58000000000001 11.799999999999999 L 78.58000000000001 24.36 L 81.75000000000001 24.36 L 81.75000000000001 16.88 C 81.75000000000001 15.12 82.70000000000002 14.11 84.34000000000002 14.079999999999998 C 85.91000000000001 14.109999999999998 86.81000000000002 15.099999999999998 86.81000000000002 16.81 L 86.81000000000002 24.36 L 89.98000000000002 24.36 L 89.98000000000002 16.27 C 89.98000000000002 13.28 88.34000000000002 11.5 85.59000000000002 11.5 Z M 120.00000000000001 9.73 L 120.00000000000001 7.33 L 109.54000000000002 7.33 L 109.54000000000002 9.73 L 113.21000000000002 9.73 L 113.21000000000002 21.950000000000003 L 109.54000000000002 21.950000000000003 L 109.54000000000002 24.35 L 120.00000000000003 24.35 L 120.00000000000003 21.950000000000003 L 116.33000000000003 21.950000000000003 L 116.33000000000003 9.73 L 120.00000000000003 9.73 Z M 101.25000000000001 7.33 L 101.25000000000001 7.33 C 101.25000000000001 7.33 97.97000000000001 7.33 97.97000000000001 7.33 L 91.87000000000002 24.369999999999997 L 95.30000000000003 24.369999999999997 L 96.47000000000003 20.72 L 103.13000000000002 20.72 L 103.13000000000002 20.759999999999998 C 103.13000000000002 20.759999999999998 104.30000000000003 24.38 104.30000000000003 24.38 L 107.73000000000003 24.38 L 101.62000000000003 7.34 L 101.26000000000003 7.34 Z M 97.22000000000001 18.310000000000002 L 99.79 10.260000000000002 L 102.34 18.310000000000002 L 97.22 18.310000000000002 Z M 57.77000000000001 11.500000000000004 C 57.77000000000001 11.500000000000004 57.72000000000001 11.500000000000004 57.70000000000001 11.500000000000004 C 57.67000000000001 11.500000000000004 57.65000000000001 11.500000000000004 57.63000000000001 11.500000000000004 C 56.040000000000006 11.500000000000004 54.67000000000001 12.160000000000004 53.95000000000001 13.260000000000003 L 53.77000000000001 13.540000000000003 L 53.77000000000001 11.800000000000002 L 50.75000000000001 11.800000000000002 L 50.75000000000001 28.69 L 53.92000000000001 28.69 L 53.92000000000001 22.79 L 54.10000000000001 23.06 C 54.78000000000001 24.07 56.11000000000001 24.669999999999998 57.66000000000001 24.669999999999998 C 57.69000000000001 24.669999999999998 57.71000000000001 24.669999999999998 57.74000000000001 24.669999999999998 C 57.76000000000001 24.669999999999998 57.78000000000001 24.669999999999998 57.81000000000001 24.669999999999998 C 60.42000000000001 24.669999999999998 63.05000000000001 22.97 63.05000000000001 19.159999999999997 L 63.05000000000001 17.019999999999996 C 63.05000000000001 14.279999999999996 61.430000000000014 11.509999999999996 57.79000000000001 11.509999999999996 Z M 59.87000000000001 19.000000000000004 C 59.87000000000001 21.000000000000004 58.72000000000001 22.240000000000002 56.860000000000014 22.280000000000005 C 55.13000000000002 22.250000000000004 53.920000000000016 20.930000000000003 53.920000000000016 19.050000000000004 L 53.920000000000016 17.160000000000004 C 53.920000000000016 15.260000000000003 55.140000000000015 13.920000000000003 56.890000000000015 13.880000000000004 C 58.73000000000002 13.910000000000004 59.87000000000001 15.160000000000004 59.87000000000001 17.160000000000004 L 59.87000000000001 19.000000000000004 Z M 70.92000000000002 11.500000000000004 L 70.92000000000002 11.500000000000004 C 70.86000000000001 11.500000000000004 70.80000000000001 11.510000000000003 70.74000000000001 11.510000000000003 C 70.68 11.510000000000003 70.62 11.500000000000004 70.56 11.500000000000004 L 70.56 11.500000000000004 C 66.99000000000001 11.500000000000004 64.78 13.730000000000004 64.78 17.310000000000002 L 64.78 19.070000000000004 C 64.78 22.520000000000003 67.02 24.660000000000004 70.61 24.660000000000004 C 70.69 24.660000000000004 70.76 24.660000000000004 70.83 24.650000000000002 C 70.88 24.650000000000002 70.92 24.660000000000004 70.97 24.660000000000004 C 73.38 24.660000000000004 75.06 23.780000000000005 76.13 21.960000000000004 L 74 20.730000000000004 C 73.29 21.780000000000005 72.34 22.570000000000004 70.98 22.570000000000004 C 69.16000000000001 22.570000000000004 68.07000000000001 21.450000000000003 68.07000000000001 19.560000000000002 L 68.07000000000001 19.060000000000002 L 76.51 19.060000000000002 L 76.51 16.980000000000004 C 76.51 13.640000000000004 74.32000000000001 11.490000000000004 70.92 11.490000000000004 Z M 68.06000000000002 17.040000000000003 L 68.06000000000002 16.740000000000002 C 68.06000000000002 14.740000000000002 69.01000000000002 13.620000000000001 70.74000000000002 13.540000000000003 C 72.40000000000002 13.620000000000003 73.40000000000002 14.720000000000002 73.40000000000002 16.53 L 73.40000000000002 17.03 C 73.40000000000002 17.03 68.06000000000002 17.03 68.06000000000002 17.03 Z" stroke-linecap="round" />
</g>
		<g transform="matrix(1 0 0 1 -45.43 0)"  >
<path style="stroke: none; stroke-width: 1; stroke-dasharray: none; stroke-linecap: butt; stroke-dashoffset: 0; stroke-linejoin: miter; stroke-miterlimit: 4; fill: rgb(0,0,0); fill-rule: nonzero; opacity: 1;" vector-effect="non-scaling-stroke"  transform=" translate(-14.56, -14.76)" d="M 27.21 12.08 C 27.880000000000003 10.07 27.650000000000002 7.87 26.580000000000002 6.04 C 24.970000000000002 3.24 21.730000000000004 1.7999999999999998 18.57 2.47 C 17.16 0.89 15.14 -0.01 13.02 0 C 9.79 0 6.92 2.08 5.92 5.15 C 3.84 5.58 2.05 6.880000000000001 1 8.72 C -0.6200000000000001 11.52 -0.25 15.040000000000001 1.92 17.44 C 1.25 19.450000000000003 1.48 21.650000000000002 2.55 23.470000000000002 C 4.16 26.28 7.3999999999999995 27.720000000000002 10.57 27.050000000000004 C 11.97 28.630000000000003 13.99 29.540000000000006 16.11 29.530000000000005 C 19.34 29.530000000000005 22.21 27.450000000000003 23.21 24.380000000000003 C 25.29 23.950000000000003 27.080000000000002 22.650000000000002 28.12 20.810000000000002 C 29.75 18.01 29.380000000000003 14.490000000000002 27.21 12.090000000000002 Z M 24.91 7.01 C 25.55 8.129999999999999 25.79 9.44 25.57 10.71 C 25.53 10.680000000000001 25.45 10.64 25.4 10.610000000000001 L 19.52 7.210000000000001 C 19.22 7.040000000000001 18.849999999999998 7.040000000000001 18.55 7.210000000000001 L 11.66 11.190000000000001 L 11.66 8.270000000000001 L 17.35 4.980000000000001 C 20 3.450000000000001 23.380000000000003 4.360000000000001 24.91 7.010000000000002 Z M 11.66 13.08 L 14.56 11.4 L 17.46 13.08 L 17.46 16.43 L 14.56 18.11 L 11.66 16.43 L 11.66 13.08 Z M 13.01 1.93 C 14.31 1.93 15.559999999999999 2.38 16.56 3.21 C 16.52 3.23 16.439999999999998 3.28 16.38 3.31 L 10.5 6.7 C 10.2 6.87 10.02 7.19 10.02 7.54 L 10.02 15.5 L 7.49 14.04 L 7.49 7.46 C 7.49 4.4 9.96 1.9299999999999997 13.02 1.92 Z M 2.68 9.69 L 2.68 9.69 C 3.33 8.57 4.34 7.709999999999999 5.5600000000000005 7.26 L 5.5600000000000005 14.25 C 5.5600000000000005 14.6 5.74 14.91 6.040000000000001 15.09 L 12.920000000000002 19.06 L 10.380000000000003 20.529999999999998 L 4.700000000000003 17.249999999999996 C 2.0600000000000027 15.719999999999997 1.150000000000003 12.339999999999996 2.680000000000003 9.689999999999998 Z M 4.23 22.52 L 4.23 22.52 C 3.5800000000000005 21.41 3.3500000000000005 20.09 3.5700000000000003 18.82 C 3.6100000000000003 18.85 3.6900000000000004 18.89 3.74 18.92 L 9.620000000000001 22.32 C 9.920000000000002 22.490000000000002 10.290000000000001 22.490000000000002 10.590000000000002 22.32 L 17.470000000000002 18.34 L 17.470000000000002 21.259999999999998 L 11.780000000000001 24.54 C 9.13 26.06 5.750000000000001 25.16 4.2200000000000015 22.52 Z M 16.12 27.6 C 14.830000000000002 27.6 13.57 27.150000000000002 12.580000000000002 26.32 C 12.620000000000001 26.3 12.710000000000003 26.25 12.760000000000002 26.22 L 18.64 22.83 C 18.94 22.659999999999997 19.13 22.34 19.12 21.99 L 19.12 14.04 L 21.650000000000002 15.5 L 21.650000000000002 22.07 C 21.650000000000002 25.13 19.17 27.61 16.12 27.61 Z M 26.46 19.840000000000003 C 25.810000000000002 20.960000000000004 24.79 21.820000000000004 23.580000000000002 22.260000000000005 L 23.580000000000002 15.270000000000005 C 23.580000000000002 14.920000000000005 23.400000000000002 14.600000000000005 23.1 14.430000000000005 L 23.1 14.430000000000005 L 16.21 10.450000000000005 L 18.740000000000002 8.990000000000006 L 24.430000000000003 12.270000000000005 C 27.080000000000002 13.800000000000004 27.980000000000004 17.180000000000007 26.450000000000003 19.830000000000005 Z" stroke-linecap="round" />
</g>
</g>
</g>
<g transform="matrix(0.23 0 0 0.23 540 516.17)" style="" id="a1b19970-a88e-4ff2-9021-ea2c4febb814"  >
		<text xml:space="preserve" font-family="Raleway" font-size="105" font-style="normal" font-weight="900" style="stroke: none; stroke-width: 1; stroke-dasharray: none; stroke-linecap: butt; stroke-dashoffset: 0; stroke-linejoin: miter; stroke-miterlimit: 4; fill: rgb(0,0,0); fill-rule: nonzero; opacity: 1; white-space: pre;" ><tspan x="-309.22" y="32.98" >DevImagine</tspan></text>
</g>
<g transform="matrix(1 0 0 1 9.93 -837.21)" style="" id="3e84dfad-2d79-4e94-bea8-611f8e930fc7"  >
		<text xml:space="preserve" font-family="Raleway" font-size="105" font-style="normal" font-weight="900" style="stroke: none; stroke-width: 1; stroke-dasharray: none; stroke-linecap: butt; stroke-dashoffset: 0; stroke-linejoin: miter; stroke-miterlimit: 4; fill: rgb(0,0,0); fill-rule: nonzero; opacity: 1; white-space: pre;" ></text>
</g>
<g transform="matrix(0.14 0 0 0.14 540 540)" style="" id="25c3533a-7c0e-4ea5-8845-758c6217dd29"  >
		<text xml:space="preserve" font-family="Alegreya" font-size="80" font-style="normal" font-weight="700" style="stroke: none; stroke-width: 1; stroke-dasharray: none; stroke-linecap: butt; stroke-dashoffset: 0; stroke-linejoin: miter; stroke-miterlimit: 4; fill: rgb(0,0,0); fill-rule: nonzero; opacity: 1; white-space: pre;" ><tspan x="-195.64" y="25.13" >Powered By</tspan></text>
</g>
</svg>